# xmcd
#
# Track frame offsets:
#	150
#	14681
#	28958
#	44478
#	59741
#	74070
#	92587
#	105825
#	125205
#	137823
#	150213
#	162949
#	178887
#	191720
#
# Disc length: 2759
#
# Revision: 1
# Processed by: cddbd v1.5.1PL0 Copyright (c) Steve Scherf et al.
# Submitted via: VisiTrax 2.9.5.180 - For more info visit www.synapsa.com
# Normalized: r0:DSETVAR1
#
DISCID=cf0ac50e
DTITLE=Various Artist - Mr Music Country
DYEAR=2003
DGENRE=
TTITLE0=BR5-49 - My name is mud
TTITLE1=Alan Jackson - First love
TTITLE2=Brad Paisley/Bill Anderson/George Jones/Buck Owens - Too country
TTITLE3=John Lott/Dana Pike - You're the reason God made Oklahoma
TTITLE4=Stan Martin - (I'm still) Crazy over you
TTITLE5=Lorrie Morgan - Don't touch me
TTITLE6=Lawrence Reynolds - He comes from Alabama
TTITLE7=Harlan Howard - Be careful who you love (Arthur's song)
TTITLE8=Erin Hay - Bj the DJ
TTITLE9=Billy Boggs - Gonna have love
TTITLE10=Eddie London - I wouldn't change a thing about your name
TTITLE11=Pam Tillis - You can't have a good time without me
TTITLE12=Shane Worley - Rosie's on a roll
TTITLE13=Hank Cochran/Clinton Gregory - When cotton was king
EXTD=
EXTT0=
EXTT1=
EXTT2=
EXTT3=
EXTT4=
EXTT5=
EXTT6=
EXTT7=
EXTT8=
EXTT9=
EXTT10=
EXTT11=
EXTT12=
EXTT13=
PLAYORDER=
